<?xml version="1.0" encoding="UTF-8"?>
<!DOCTYPE svg PUBLIC "-//W3C//DTD SVG 1.1//EN" "http://www.w3.org/Graphics/SVG/1.1/DTD/svg11.dtd">
<svg xmlns="http://www.w3.org/2000/svg" version="1.1" width="4518px" height="4511px" style="shape-rendering:geometricPrecision; text-rendering:geometricPrecision; image-rendering:optimizeQuality; fill-rule:evenodd; clip-rule:evenodd" xmlns:xlink="http://www.w3.org/1999/xlink">
<g><path style="opacity:1" fill="#67eefe" d="M 2223.5,-0.5 C 2248.17,-0.5 2272.83,-0.5 2297.5,-0.5C 2317,0.456747 2336.66,1.12341 2356.5,1.5C 2181.26,332.982 2006.26,664.648 1831.5,996.5C 1831.04,997.298 1830.38,997.631 1829.5,997.5C 1810.27,974.269 1789.94,951.935 1768.5,930.5C 1758.17,919.5 1747.5,908.833 1736.5,898.5C 1723.83,886.833 1711.17,875.167 1698.5,863.5C 1700.07,863.063 1701.24,862.063 1702,860.5C 1852.59,574.315 2003.42,288.315 2154.5,2.5C 2177.63,1.31594 2200.63,0.315945 2223.5,-0.5 Z"/></g>
<g><path style="opacity:1" fill="#63ecfe" d="M 2356.5,1.5 C 2362.48,2.07416 2368.48,2.40749 2374.5,2.5C 2201.61,331.271 2028.45,659.938 1855,988.5C 1850.98,996.559 1846.48,1004.23 1841.5,1011.5C 1837.15,1007.15 1833.15,1002.49 1829.5,997.5C 1830.38,997.631 1831.04,997.298 1831.5,996.5C 2006.26,664.648 2181.26,332.982 2356.5,1.5 Z"/></g>
<g><path style="opacity:0.999" fill="#6df1fe" d="M 2154.5,2.5 C 2003.42,288.315 1852.59,574.315 1702,860.5C 1701.24,862.063 1700.07,863.063 1698.5,863.5C 1656.13,826.497 1611.13,793.164 1563.5,763.5C 1565.43,762.358 1566.93,760.692 1568,758.5C 1697.78,512.604 1827.28,266.604 1956.5,20.5C 2022.05,11.0867 2088.05,5.08667 2154.5,2.5 Z"/></g>
<g><path style="opacity:0.999" fill="#60ebfe" d="M 2374.5,2.5 C 2436.42,5.58402 2498.09,11.2507 2559.5,19.5C 2357.23,402.369 2155.23,785.369 1953.5,1168.5C 1936.92,1142.35 1919.59,1116.69 1901.5,1091.5C 1883.71,1065.59 1864.71,1040.59 1844.5,1016.5C 1843.75,1014.67 1842.75,1013 1841.5,1011.5C 1846.48,1004.23 1850.98,996.559 1855,988.5C 2028.45,659.938 2201.61,331.271 2374.5,2.5 Z"/></g>
<g><path style="opacity:0.999" fill="#5ae9ff" d="M 2559.5,19.5 C 2619.61,27.351 2679.27,37.6844 2738.5,50.5C 2510.67,483.491 2282.34,916.157 2053.5,1348.5C 2022.97,1286.72 1989.64,1226.72 1953.5,1168.5C 2155.23,785.369 2357.23,402.369 2559.5,19.5 Z"/></g>
<g><path style="opacity:0.999" fill="#71f2fe" d="M 1956.5,20.5 C 1827.28,266.604 1697.78,512.604 1568,758.5C 1566.93,760.692 1565.43,762.358 1563.5,763.5C 1548.13,754.485 1532.8,745.485 1517.5,736.5C 1641.17,501.167 1764.83,265.833 1888.5,30.5C 1911.03,26.3287 1933.7,22.9954 1956.5,20.5 Z"/></g>
<g><path style="opacity:0.999" fill="#74f4fe" d="M 1888.5,30.5 C 1764.83,265.833 1641.17,501.167 1517.5,736.5C 1484.5,719.615 1450.83,704.281 1416.5,690.5C 1417.5,690.586 1418.33,690.252 1419,689.5C 1530.4,478.941 1641.56,268.275 1752.5,57.5C 1797.45,46.7109 1842.78,37.7109 1888.5,30.5 Z"/></g>
<g><path style="opacity:0.999" fill="#56e8fe" d="M 2738.5,50.5 C 2754.87,54.01 2771.21,57.6767 2787.5,61.5C 2552.07,508.026 2316.41,954.359 2080.5,1400.5C 2071.5,1383.17 2062.5,1365.83 2053.5,1348.5C 2282.34,916.157 2510.67,483.491 2738.5,50.5 Z"/></g>
<g><path style="opacity:0.999" fill="#79f6fe" d="M 1752.5,57.5 C 1641.56,268.275 1530.4,478.941 1419,689.5C 1418.33,690.252 1417.5,690.586 1416.5,690.5C 1375.44,675.403 1333.44,663.736 1290.5,655.5C 1279.06,652.59 1267.39,650.257 1255.5,648.5C 1348.75,472.325 1441.75,295.991 1534.5,119.5C 1606,94.7917 1678.66,74.125 1752.5,57.5 Z"/></g>
<g><path style="opacity:0.999" fill="#53e6ff" d="M 2787.5,61.5 C 2829.85,71.5871 2871.85,82.9205 2913.5,95.5C 2660.1,576.631 2406.43,1057.63 2152.5,1538.5C 2128.52,1492.53 2104.52,1446.53 2080.5,1400.5C 2316.41,954.359 2552.07,508.026 2787.5,61.5 Z"/></g>
<g><path style="opacity:0.999" fill="#4de4ff" d="M 2913.5,95.5 C 2982.18,116.167 3049.51,140.167 3115.5,167.5C 2833.9,701.035 2552.57,1234.7 2271.5,1768.5C 2231.33,1692.15 2191.66,1615.49 2152.5,1538.5C 2406.43,1057.63 2660.1,576.631 2913.5,95.5 Z"/></g>
<g><path style="opacity:0.999" fill="#7ef8fe" d="M 1534.5,119.5 C 1441.75,295.991 1348.75,472.325 1255.5,648.5C 1253.83,648.5 1252.17,648.5 1250.5,648.5C 1220.11,643.317 1189.44,640.65 1158.5,640.5C 1148.35,639.506 1138.01,639.172 1127.5,639.5C 1206.91,487.675 1286.58,336.009 1366.5,184.5C 1421.48,160.501 1477.48,138.834 1534.5,119.5 Z"/></g>
<g><path style="opacity:0.999" fill="#47e1ff" d="M 3115.5,167.5 C 3166.31,187.739 3215.97,210.405 3264.5,235.5C 2964.07,805.359 2663.41,1375.03 2362.5,1944.5C 2331.66,1886.15 2301.33,1827.49 2271.5,1768.5C 2552.57,1234.7 2833.9,701.035 3115.5,167.5 Z"/></g>
<g><path style="opacity:0.998" fill="#82fafe" d="M 1366.5,184.5 C 1286.58,336.009 1206.91,487.675 1127.5,639.5C 1110.45,639.265 1093.45,639.932 1076.5,641.5C 1068.82,642.047 1061.15,642.713 1053.5,643.5C 1051.1,643.448 1048.76,643.781 1046.5,644.5C 1047.76,639.968 1049.6,635.635 1052,631.5C 1122.11,498.938 1191.95,366.271 1261.5,233.5C 1295.83,215.837 1330.83,199.503 1366.5,184.5 Z"/></g>
<g><path style="opacity:0.998" fill="#86fbfe" d="M 1261.5,233.5 C 1191.95,366.271 1122.11,498.938 1052,631.5C 1049.6,635.635 1047.76,639.968 1046.5,644.5C 1027.5,646.223 1008.83,649.223 990.5,653.5C 971.08,656.441 952.08,660.774 933.5,666.5C 910.47,672.35 887.803,679.35 865.5,687.5C 856.5,690.833 847.5,694.167 838.5,697.5C 892.912,593.009 947.578,488.676 1002.5,384.5C 1084.72,327.861 1171.06,277.528 1261.5,233.5 Z"/></g>
<g><path style="opacity:0.999" fill="#45e0ff" d="M 3264.5,235.5 C 3270.29,237.896 3275.96,240.563 3281.5,243.5C 2979.36,817.789 2676.69,1391.79 2373.5,1965.5C 2369.58,1958.67 2365.92,1951.67 2362.5,1944.5C 2663.41,1375.03 2964.07,805.359 3264.5,235.5 Z"/></g>
<g><path style="opacity:0.999" fill="#41deff" d="M 3281.5,243.5 C 3338.46,272.302 3393.79,303.635 3447.5,337.5C 3125.33,949.184 2802.66,1560.52 2479.5,2171.5C 2444.15,2102.81 2408.82,2034.14 2373.5,1965.5C 2676.69,1391.79 2979.36,817.789 3281.5,243.5 Z"/></g>
<g><path style="opacity:0.999" fill="#3bdcff" d="M 3447.5,337.5 C 3496.38,367.879 3544.04,400.046 3590.5,434C 3597.66,439.326 3604.32,445.159 3610.5,451.5C 3270.75,1096 2930.75,1740.33 2590.5,2384.5C 2553.26,2313.69 2516.26,2242.69 2479.5,2171.5C 2802.66,1560.52 3125.33,949.184 3447.5,337.5 Z"/></g>
<g><path style="opacity:0.992" fill="#8cfefe" d="M 1002.5,384.5 C 947.578,488.676 892.912,593.009 838.5,697.5C 831.593,700.128 824.927,703.128 818.5,706.5C 813.188,707.715 808.188,709.715 803.5,712.5C 788.521,718.991 773.854,725.991 759.5,733.5C 755.042,735.229 750.709,737.229 746.5,739.5C 732.144,746.675 718.144,754.341 704.5,762.5C 700.034,764.566 695.701,766.9 691.5,769.5C 677.962,776.762 664.962,784.762 652.5,793.5C 631.978,805.686 611.978,818.686 592.5,832.5C 580.657,840.588 568.991,848.921 557.5,857.5C 553.462,860.512 549.462,863.512 545.5,866.5C 530.19,877.815 515.19,889.482 500.5,901.5C 493.186,906.818 486.186,912.484 479.5,918.5C 468.185,927.152 457.185,936.152 446.5,945.5C 429.211,959.788 412.544,974.788 396.5,990.5C 392.544,992.788 389.211,995.788 386.5,999.5C 383.5,1002.17 380.5,1004.83 377.5,1007.5C 392.762,987.727 408.262,968.061 424,948.5C 474.705,892.131 525.038,835.464 575,778.5C 631.371,716.124 689.204,654.958 748.5,595C 815.043,529.094 885.709,468.427 960.5,413C 974.125,402.862 988.125,393.362 1002.5,384.5 Z"/></g>
<g><path style="opacity:0.999" fill="#37dbff" d="M 3610.5,451.5 C 3626.55,465.882 3641.22,481.549 3654.5,498.5C 3312.8,1144.89 2971.47,1791.56 2630.5,2438.5C 2613,2423.65 2599.66,2405.65 2590.5,2384.5C 2930.75,1740.33 3270.75,1096 3610.5,451.5 Z"/></g>
<g><path style="opacity:0.999" fill="#34d9ff" d="M 3654.5,498.5 C 3713.94,578.879 3737.28,668.879 3724.5,768.5C 3425.99,1332.84 3127.99,1897.51 2830.5,2462.5C 2797.38,2480.22 2762.04,2486.72 2724.5,2482C 2688.35,2477.42 2657.01,2462.92 2630.5,2438.5C 2971.47,1791.56 3312.8,1144.89 3654.5,498.5 Z"/></g>
<g><path style="opacity:0.998" fill="#15244d" d="M 1127.5,639.5 C 1138.01,639.172 1148.35,639.506 1158.5,640.5C 1157.45,640.351 1156.45,640.517 1155.5,641C 1384.9,766.7 1614.57,891.866 1844.5,1016.5C 1864.71,1040.59 1883.71,1065.59 1901.5,1091.5C 1873.08,1064.95 1839.75,1047.29 1801.5,1038.5C 1559.99,905.913 1318.33,773.579 1076.5,641.5C 1093.45,639.932 1110.45,639.265 1127.5,639.5 Z"/></g>
<g><path style="opacity:1" fill="#132248" d="M 1158.5,640.5 C 1189.44,640.65 1220.11,643.317 1250.5,648.5C 1423.02,742.678 1595.52,837.011 1768,931.5C 1768.4,931.272 1768.57,930.938 1768.5,930.5C 1789.94,951.935 1810.27,974.269 1829.5,997.5C 1833.15,1002.49 1837.15,1007.15 1841.5,1011.5C 1842.75,1013 1843.75,1014.67 1844.5,1016.5C 1614.57,891.866 1384.9,766.7 1155.5,641C 1156.45,640.517 1157.45,640.351 1158.5,640.5 Z"/></g>
<g><path style="opacity:0.999" fill="#162651" d="M 1076.5,641.5 C 1318.33,773.579 1559.99,905.913 1801.5,1038.5C 1789.64,1035.9 1777.64,1034.23 1765.5,1033.5C 1528.17,903.5 1290.83,773.5 1053.5,643.5C 1061.15,642.713 1068.82,642.047 1076.5,641.5 Z"/></g>
<g><path style="opacity:0.999" fill="#172855" d="M 1053.5,643.5 C 1290.83,773.5 1528.17,903.5 1765.5,1033.5C 1743.46,1033.3 1721.79,1035.96 1700.5,1041.5C 1463.8,912.151 1227.13,782.817 990.5,653.5C 1008.83,649.223 1027.5,646.223 1046.5,644.5C 1048.76,643.781 1051.1,643.448 1053.5,643.5 Z"/></g>
<g><path style="opacity:1" fill="#132044" d="M 1250.5,648.5 C 1252.17,648.5 1253.83,648.5 1255.5,648.5C 1267.39,650.257 1279.06,652.59 1290.5,655.5C 1439.02,736.678 1587.52,818.012 1736,899.5C 1736.4,899.272 1736.57,898.938 1736.5,898.5C 1747.5,908.833 1758.17,919.5 1768.5,930.5C 1768.57,930.938 1768.4,931.272 1768,931.5C 1595.52,837.011 1423.02,742.678 1250.5,648.5 Z"/></g>
<g><path style="opacity:1" fill="#121e41" d="M 1290.5,655.5 C 1333.44,663.736 1375.44,675.403 1416.5,690.5C 1450.83,704.281 1484.5,719.615 1517.5,736.5C 1532.8,745.485 1548.13,754.485 1563.5,763.5C 1611.13,793.164 1656.13,826.497 1698.5,863.5C 1711.17,875.167 1723.83,886.833 1736.5,898.5C 1736.57,898.938 1736.4,899.272 1736,899.5C 1587.52,818.012 1439.02,736.678 1290.5,655.5 Z"/></g>
<g><path style="opacity:0.999" fill="#182b5a" d="M 990.5,653.5 C 1227.13,782.817 1463.8,912.151 1700.5,1041.5C 1684.94,1046.77 1669.94,1053.44 1655.5,1061.5C 1414.83,929.833 1174.17,798.167 933.5,666.5C 952.08,660.774 971.08,656.441 990.5,653.5 Z"/></g>
<g><path style="opacity:0.999" fill="#1a2d60" d="M 933.5,666.5 C 1174.17,798.167 1414.83,929.833 1655.5,1061.5C 1640.02,1071.31 1625.68,1082.64 1612.5,1095.5C 1365.23,961.533 1118.23,827.033 871.5,692C 869.253,690.723 867.253,689.223 865.5,687.5C 887.803,679.35 910.47,672.35 933.5,666.5 Z"/></g>
<g><path style="opacity:0.999" fill="#1c3066" d="M 865.5,687.5 C 867.253,689.223 869.253,690.723 871.5,692C 1118.23,827.033 1365.23,961.533 1612.5,1095.5C 1603.74,1105.26 1595.74,1115.6 1588.5,1126.5C 1331.51,987.005 1074.84,847.005 818.5,706.5C 824.927,703.128 831.593,700.128 838.5,697.5C 847.5,694.167 856.5,690.833 865.5,687.5 Z"/></g>
<g><path style="opacity:0.999" fill="#1d326a" d="M 818.5,706.5 C 1074.84,847.005 1331.51,987.005 1588.5,1126.5C 1586.4,1130.37 1584.07,1134.04 1581.5,1137.5C 1327.89,999.358 1074.22,861.191 820.5,723C 814.434,719.976 808.768,716.476 803.5,712.5C 808.188,709.715 813.188,707.715 818.5,706.5 Z"/></g>
<g><path style="opacity:0.999" fill="#1e336d" d="M 803.5,712.5 C 808.768,716.476 814.434,719.976 820.5,723C 1074.22,861.191 1327.89,999.358 1581.5,1137.5C 1575.66,1149.19 1569.32,1160.52 1562.5,1171.5C 1294.7,1025.77 1027.03,879.766 759.5,733.5C 773.854,725.991 788.521,718.991 803.5,712.5 Z"/></g>
<g><path style="opacity:0.999" fill="#1f3571" d="M 759.5,733.5 C 1027.03,879.766 1294.7,1025.77 1562.5,1171.5C 1560.93,1175.73 1558.93,1179.73 1556.5,1183.5C 1287.53,1036.68 1018.53,889.846 749.5,743C 747.937,742.241 746.937,741.074 746.5,739.5C 750.709,737.229 755.042,735.229 759.5,733.5 Z"/></g>
<g><path style="opacity:0.999" fill="#203673" d="M 746.5,739.5 C 746.937,741.074 747.937,742.241 749.5,743C 1018.53,889.846 1287.53,1036.68 1556.5,1183.5C 1550.15,1194.87 1543.82,1206.2 1537.5,1217.5C 1260.03,1065.6 982.362,913.929 704.5,762.5C 718.144,754.341 732.144,746.675 746.5,739.5 Z"/></g>
<g><path style="opacity:0.999" fill="#213877" d="M 704.5,762.5 C 982.362,913.929 1260.03,1065.6 1537.5,1217.5C 1535.74,1221.36 1533.74,1225.03 1531.5,1228.5C 1251.47,1075.48 971.465,922.484 691.5,769.5C 695.701,766.9 700.034,764.566 704.5,762.5 Z"/></g>
<g><path style="opacity:0.98" fill="#31d8ff" d="M 3724.5,768.5 C 3717.47,816.076 3701.97,860.743 3678,902.5C 3421.41,1394.01 3165.08,1885.68 2909,2377.5C 2893.36,2412.47 2869.2,2439.97 2836.5,2460C 2834.59,2461.12 2832.59,2461.96 2830.5,2462.5C 3127.99,1897.51 3425.99,1332.84 3724.5,768.5 Z"/></g>
<g><path style="opacity:0.999" fill="#21397a" d="M 691.5,769.5 C 971.465,922.484 1251.47,1075.48 1531.5,1228.5C 1525.66,1240.19 1519.32,1251.52 1512.5,1262.5C 1226.16,1105.66 939.495,949.329 652.5,793.5C 664.962,784.762 677.962,776.762 691.5,769.5 Z"/></g>
<g><path style="opacity:1" fill="#233c80" d="M 652.5,793.5 C 939.495,949.329 1226.16,1105.66 1512.5,1262.5C 1502.5,1281.17 1492.5,1299.84 1482.5,1318.5C 1206.22,1168.02 929.887,1017.52 653.5,867C 632.78,855.979 612.446,844.479 592.5,832.5C 611.978,818.686 631.978,805.686 652.5,793.5 Z"/></g>
<g><path style="opacity:0.999" fill="#253f85" d="M 592.5,832.5 C 612.446,844.479 632.78,855.979 653.5,867C 929.887,1017.52 1206.22,1168.02 1482.5,1318.5C 1476.77,1330.3 1470.77,1341.96 1464.5,1353.5C 1161.97,1188.4 859.638,1023.07 557.5,857.5C 568.991,848.921 580.657,840.588 592.5,832.5 Z"/></g>
<g><path style="opacity:1" fill="#264189" d="M 557.5,857.5 C 859.638,1023.07 1161.97,1188.4 1464.5,1353.5C 1462.74,1357.36 1460.74,1361.03 1458.5,1364.5C 1154.03,1198.77 849.7,1032.77 545.5,866.5C 549.462,863.512 553.462,860.512 557.5,857.5 Z"/></g>
<g><path style="opacity:1" fill="#26428c" d="M 545.5,866.5 C 849.7,1032.77 1154.03,1198.77 1458.5,1364.5C 1451.01,1380.16 1443.01,1395.49 1434.5,1410.5C 1123.46,1240.31 812.126,1070.65 500.5,901.5C 515.19,889.482 530.19,877.815 545.5,866.5 Z"/></g>
<g><path style="opacity:1" fill="#284490" d="M 500.5,901.5 C 812.126,1070.65 1123.46,1240.31 1434.5,1410.5C 1431.26,1418.65 1427.26,1426.31 1422.5,1433.5C 1108.01,1262.09 793.673,1090.42 479.5,918.5C 486.186,912.484 493.186,906.818 500.5,901.5 Z"/></g>
<g><path style="opacity:1" fill="#284593" d="M 479.5,918.5 C 793.673,1090.42 1108.01,1262.09 1422.5,1433.5C 1417.26,1445.64 1411.26,1457.31 1404.5,1468.5C 1085.49,1293.66 766.161,1119.33 446.5,945.5C 457.185,936.152 468.185,927.152 479.5,918.5 Z"/></g>
<g><path style="opacity:1" fill="#2a4898" d="M 446.5,945.5 C 766.161,1119.33 1085.49,1293.66 1404.5,1468.5C 1395.1,1487.63 1385.44,1506.63 1375.5,1525.5C 1048.97,1347.4 722.638,1169.07 396.5,990.5C 412.544,974.788 429.211,959.788 446.5,945.5 Z"/></g>
<g><path style="opacity:1" fill="#2b4a9d" d="M 396.5,990.5 C 722.638,1169.07 1048.97,1347.4 1375.5,1525.5C 1373.74,1529.36 1371.74,1533.03 1369.5,1536.5C 1041.58,1357.89 713.909,1178.89 386.5,999.5C 389.211,995.788 392.544,992.788 396.5,990.5 Z"/></g>
<g><path style="opacity:0.999" fill="#2c4b9f" d="M 386.5,999.5 C 713.909,1178.89 1041.58,1357.89 1369.5,1536.5C 1362.01,1552.16 1354.01,1567.49 1345.5,1582.5C 1014.5,1401.83 683.5,1221.17 352.5,1040.5C 360.481,1029.19 368.814,1018.19 377.5,1007.5C 380.5,1004.83 383.5,1002.17 386.5,999.5 Z"/></g>
<g><path style="opacity:0.999" fill="#2d4ea5" d="M 352.5,1040.5 C 683.5,1221.17 1014.5,1401.83 1345.5,1582.5C 1334.26,1605.98 1322.26,1628.98 1309.5,1651.5C 976.522,1469.01 643.188,1287.01 309.5,1105.5C 323.088,1083.32 337.422,1061.65 352.5,1040.5 Z"/></g>
<g><path style="opacity:0.999" fill="#2f50aa" d="M 309.5,1105.5 C 643.188,1287.01 976.522,1469.01 1309.5,1651.5C 1304.36,1663.12 1298.69,1674.45 1292.5,1685.5C 958.172,1503.67 624.172,1321.34 290.5,1138.5C 296.581,1127.34 302.914,1116.34 309.5,1105.5 Z"/></g>
<g><path style="opacity:0.999" fill="#3052ad" d="M 290.5,1138.5 C 624.172,1321.34 958.172,1503.67 1292.5,1685.5C 1288.76,1693.32 1284.76,1700.99 1280.5,1708.5C 946.327,1525.91 611.993,1343.58 277.5,1161.5C 281.596,1153.64 285.929,1145.97 290.5,1138.5 Z"/></g>
<g><path style="opacity:0.999" fill="#3053b0" d="M 277.5,1161.5 C 611.993,1343.58 946.327,1525.91 1280.5,1708.5C 1270.74,1727.69 1260.74,1746.69 1250.5,1765.5C 916.007,1583.42 581.673,1401.09 247.5,1218.5C 256.723,1199.05 266.723,1180.05 277.5,1161.5 Z"/></g>
<g><path style="opacity:0.998" fill="#7449d7" d="M 4509.5,2071.5 C 4272.37,1954.1 4035.37,1836.44 3798.5,1718.5C 3870.84,1579.31 3943.01,1439.97 4015,1300.5C 4047.24,1246.01 4095.24,1217.67 4159,1215.5C 4221.36,1217.33 4268.69,1244.66 4301,1297.5C 4417.62,1542.63 4487.12,1800.63 4509.5,2071.5 Z"/></g>
<g><path style="opacity:0.999" fill="#3255b4" d="M 247.5,1218.5 C 581.673,1401.09 916.007,1583.42 1250.5,1765.5C 1247.26,1773.65 1243.26,1781.31 1238.5,1788.5C 904.3,1605.9 569.966,1423.57 235.5,1241.5C 239.261,1233.64 243.261,1225.97 247.5,1218.5 Z"/></g>
<g><path style="opacity:0.999" fill="#3256b7" d="M 235.5,1241.5 C 569.966,1423.57 904.3,1605.9 1238.5,1788.5C 1230.86,1803.82 1223.2,1819.15 1215.5,1834.5C 881.5,1652.5 547.5,1470.5 213.5,1288.5C 220.448,1272.66 227.781,1256.99 235.5,1241.5 Z"/></g>
<g><path style="opacity:0.999" fill="#3358b9" d="M 213.5,1288.5 C 547.5,1470.5 881.5,1652.5 1215.5,1834.5C 1209.5,1845.83 1203.5,1857.17 1197.5,1868.5C 863.993,1686.58 530.327,1504.91 196.5,1323.5C 201.928,1311.65 207.594,1299.98 213.5,1288.5 Z"/></g>
<g><path style="opacity:0.999" fill="#345abe" d="M 196.5,1323.5 C 530.327,1504.91 863.993,1686.58 1197.5,1868.5C 1183.99,1895.52 1169.99,1922.18 1155.5,1948.5C 823.874,1768.35 492.54,1587.69 161.5,1406.5C 172.582,1378.59 184.248,1350.92 196.5,1323.5 Z"/></g>
<g><path style="opacity:0.999" fill="#365cc3" d="M 161.5,1406.5 C 492.54,1587.69 823.874,1768.35 1155.5,1948.5C 1146.01,1968.15 1136.01,1987.49 1125.5,2006.5C 796.695,1826.6 467.695,1646.93 138.5,1467.5C 145.329,1446.84 152.996,1426.51 161.5,1406.5 Z"/></g>
<g><path style="opacity:0.999" fill="#375ec6" d="M 138.5,1467.5 C 467.695,1646.93 796.695,1826.6 1125.5,2006.5C 1122.26,2014.65 1118.26,2022.31 1113.5,2029.5C 785.5,1850.17 457.5,1670.83 129.5,1491.5C 131.736,1483.11 134.736,1475.11 138.5,1467.5 Z"/></g>
<g><path style="opacity:0.999" fill="#375fc9" d="M 129.5,1491.5 C 457.5,1670.83 785.5,1850.17 1113.5,2029.5C 1100.36,2056.45 1086.69,2083.12 1072.5,2109.5C 748.145,1932.99 424.145,1755.99 100.5,1578.5C 109.196,1549.08 118.862,1520.08 129.5,1491.5 Z"/></g>
<g><path style="opacity:0.999" fill="#3961cd" d="M 100.5,1578.5 C 424.145,1755.99 748.145,1932.99 1072.5,2109.5C 1066.99,2121.18 1060.99,2132.52 1054.5,2143.5C 732.517,1967.86 410.517,1792.2 88.5,1616.5C 92.3262,1603.69 96.3262,1591.03 100.5,1578.5 Z"/></g>
<g><path style="opacity:0.999" fill="#3962d0" d="M 88.5,1616.5 C 410.517,1792.2 732.517,1967.86 1054.5,2143.5C 1041.26,2170.98 1027.26,2197.98 1012.5,2224.5C 696.855,2051.34 380.855,1878.67 64.5,1706.5C 71.8905,1676.33 79.8905,1646.33 88.5,1616.5 Z"/></g>
<g><path style="opacity:0.999" fill="#3a64d3" d="M 64.5,1706.5 C 380.855,1878.67 696.855,2051.34 1012.5,2224.5C 1007.36,2236.12 1001.69,2247.45 995.5,2258.5C 682.167,2087.5 368.833,1916.5 55.5,1745.5C 58.3434,1732.46 61.3434,1719.46 64.5,1706.5 Z"/></g>
<g><path style="opacity:0.999" fill="#7147d2" d="M 3798.5,1718.5 C 4035.37,1836.44 4272.37,1954.1 4509.5,2071.5C 4513.32,2115.2 4515.98,2158.86 4517.5,2202.5C 4517.5,2241.17 4517.5,2279.83 4517.5,2318.5C 4244.38,2183.44 3971.38,2048.1 3698.5,1912.5C 3731.31,1847.55 3764.64,1782.88 3798.5,1718.5 Z"/></g>
<g><path style="opacity:0.999" fill="#3b65d7" d="M 55.5,1745.5 C 368.833,1916.5 682.167,2087.5 995.5,2258.5C 971.578,2304.01 947.912,2349.68 924.5,2395.5C 624.7,2232.43 325.034,2069.1 25.5,1905.5C 33.1339,1851.69 43.1339,1798.36 55.5,1745.5 Z"/></g>
<g><path style="opacity:0.999" fill="#3d68dd" d="M 25.5,1905.5 C 325.034,2069.1 624.7,2232.43 924.5,2395.5C 896.739,2449.36 868.739,2503.03 840.5,2556.5C 562.161,2404 283.495,2252 4.5,2100.5C 8.21123,2035.1 15.2112,1970.1 25.5,1905.5 Z"/></g>
<g><path style="opacity:0.999" fill="#7046cf" d="M 3698.5,1912.5 C 3971.38,2048.1 4244.38,2183.44 4517.5,2318.5C 4517.5,2320.17 4517.5,2321.83 4517.5,2323.5C 4516.65,2341.74 4515.65,2360.08 4514.5,2378.5C 4234.29,2238.9 3953.96,2099.56 3673.5,1960.5C 3681.33,1944.18 3689.66,1928.18 3698.5,1912.5 Z"/></g>
<g><path style="opacity:0.999" fill="#6e45cc" d="M 3673.5,1960.5 C 3953.96,2099.56 4234.29,2238.9 4514.5,2378.5C 4511.97,2437.05 4506.97,2495.38 4499.5,2553.5C 4198.84,2404.17 3898.17,2254.84 3597.5,2105.5C 3622.59,2056.97 3647.93,2008.64 3673.5,1960.5 Z"/></g>
<g><path style="opacity:0.999" fill="#f85aff" d="M 2129.5,2515.5 C 1852.93,3109.65 1576.59,3703.98 1300.5,4298.5C 1166.28,4235.1 1039.95,4159.6 921.5,4072C 845.71,4008.61 802.21,3927.45 791,3828.5C 784.87,3765.28 794.536,3704.62 820,3646.5C 1082.74,3141.34 1345.74,2636.34 1609,2131.5C 1641.48,2064.4 1695.15,2029.4 1770,2026.5C 1837.75,2028.68 1888.75,2058.68 1923,2116.5C 1991.85,2249.53 2060.68,2382.53 2129.5,2515.5 Z"/></g>
<g><path style="opacity:0.999" fill="#3e6ae1" d="M 4.5,2100.5 C 283.495,2252 562.161,2404 840.5,2556.5C 831.102,2575.63 821.435,2594.63 811.5,2613.5C 541.15,2466.14 270.816,2318.8 0.5,2171.5C 1.53412,2147.82 2.86745,2124.15 4.5,2100.5 Z"/></g>
<g><path style="opacity:0.999" fill="#6c44c8" d="M 3597.5,2105.5 C 3898.17,2254.84 4198.84,2404.17 4499.5,2553.5C 4497.02,2572.53 4494.35,2591.53 4491.5,2610.5C 4185.43,2458.13 3879.43,2305.8 3573.5,2153.5C 3581.49,2137.53 3589.49,2121.53 3597.5,2105.5 Z"/></g>
<g><path style="opacity:0.999" fill="#6b43c6" d="M 3573.5,2153.5 C 3879.43,2305.8 4185.43,2458.13 4491.5,2610.5C 4487.37,2638.45 4482.37,2666.12 4476.5,2693.5C 4162.71,2538.1 3849.04,2382.44 3535.5,2226.5C 3547.41,2201.69 3560.07,2177.35 3573.5,2153.5 Z"/></g>
<g><path style="opacity:0.999" fill="#3f6ce4" d="M 0.5,2171.5 C 270.816,2318.8 541.15,2466.14 811.5,2613.5C 767.833,2697.5 724.167,2781.5 680.5,2865.5C 458.007,2744.42 235.673,2623.09 13.5,2501.5C 5.96107,2430.54 1.2944,2359.54 -0.5,2288.5C -0.5,2260.83 -0.5,2233.17 -0.5,2205.5C 0.494769,2194.35 0.828102,2183.01 0.5,2171.5 Z"/></g>
<g><path style="opacity:0.999" fill="#6942c2" d="M 3535.5,2226.5 C 3849.04,2382.44 4162.71,2538.1 4476.5,2693.5C 4471.73,2721.35 4466.06,2749.01 4459.5,2776.5C 4138.58,2617.71 3817.92,2458.37 3497.5,2298.5C 3510.18,2274.47 3522.85,2250.47 3535.5,2226.5 Z"/></g>
<g><path style="opacity:0.999" fill="#6740be" d="M 3497.5,2298.5 C 3817.92,2458.37 4138.58,2617.71 4459.5,2776.5C 4449.92,2817.15 4439.26,2857.48 4427.5,2897.5C 4098.58,2734.71 3769.92,2571.37 3441.5,2407.5C 3459.9,2371.04 3478.57,2334.7 3497.5,2298.5 Z"/></g>
<g><path style="opacity:0.999" fill="#643fb9" d="M 3441.5,2407.5 C 3769.92,2571.37 4098.58,2734.71 4427.5,2897.5C 4421.27,2919.84 4414.27,2941.84 4406.5,2963.5C 4074.29,2798.23 3741.96,2633.23 3409.5,2468.5C 3419.93,2447.97 3430.59,2427.64 3441.5,2407.5 Z"/></g>
<g><path style="opacity:0.999" fill="#643eb8" d="M 3409.5,2468.5 C 3741.96,2633.23 4074.29,2798.23 4406.5,2963.5C 4405.94,2968.16 4404.61,2972.5 4402.5,2976.5C 4069.63,2810.9 3736.63,2645.56 3403.5,2480.5C 3405.5,2476.5 3407.5,2472.5 3409.5,2468.5 Z"/></g>
<g><path style="opacity:0.999" fill="#623eb6" d="M 3403.5,2480.5 C 3736.63,2645.56 4069.63,2810.9 4402.5,2976.5C 4398.37,2989.56 4394.03,3002.56 4389.5,3015.5C 4054.38,2849.44 3719.38,2683.1 3384.5,2516.5C 3390.83,2504.5 3397.17,2492.5 3403.5,2480.5 Z"/></g>
<g><path style="opacity:0.998" fill="#406ee9" d="M 13.5,2501.5 C 235.673,2623.09 458.007,2744.42 680.5,2865.5C 621.013,2980.47 561.513,3095.47 502,3210.5C 469.589,3264.31 421.755,3292.31 358.5,3294.5C 297.459,3292.91 250.626,3266.58 218,3215.5C 109.626,2989.19 41.4593,2751.19 13.5,2501.5 Z"/></g>
<g><path style="opacity:0.999" fill="#f860ff" d="M 2129.5,2515.5 C 2204.58,2661.32 2279.91,2806.99 2355.5,2952.5C 2125.66,3445.52 1896.32,3938.86 1667.5,4432.5C 1541.06,4398.77 1418.73,4354.1 1300.5,4298.5C 1576.59,3703.98 1852.93,3109.65 2129.5,2515.5 Z"/></g>
<g><path style="opacity:0.999" fill="#603cb1" d="M 3384.5,2516.5 C 3719.38,2683.1 4054.38,2849.44 4389.5,3015.5C 4375.85,3054.45 4360.85,3092.79 4344.5,3130.5C 4005.84,2962.17 3667.17,2793.84 3328.5,2625.5C 3346.9,2589.04 3365.57,2552.7 3384.5,2516.5 Z"/></g>
<g><path style="opacity:0.999" fill="#5e3bad" d="M 3328.5,2625.5 C 3667.17,2793.84 4005.84,2962.17 4344.5,3130.5C 4341.45,3138.94 4338.11,3147.27 4334.5,3155.5C 3994.96,2986.56 3655.29,2817.9 3315.5,2649.5C 3319.85,2641.47 3324.18,2633.47 3328.5,2625.5 Z"/></g>
<g><path style="opacity:0.999" fill="#5c39aa" d="M 3315.5,2649.5 C 3655.29,2817.9 3994.96,2986.56 4334.5,3155.5C 4325.36,3176.25 4316.03,3196.92 4306.5,3217.5C 3965.83,3048.5 3625.17,2879.5 3284.5,2710.5C 3294.56,2690.04 3304.9,2669.7 3315.5,2649.5 Z"/></g>
<g><path style="opacity:0.999" fill="#5a39a7" d="M 3284.5,2710.5 C 3625.17,2879.5 3965.83,3048.5 4306.5,3217.5C 4302.77,3225.96 4298.77,3234.29 4294.5,3242.5C 3953.52,3073.34 3612.85,2903.68 3272.5,2733.5C 3276.25,2725.67 3280.25,2718 3284.5,2710.5 Z"/></g>
<g><path style="opacity:0.999" fill="#5837a4" d="M 3272.5,2733.5 C 3612.85,2903.68 3953.52,3073.34 4294.5,3242.5C 4286.93,3259.3 4278.6,3275.64 4269.5,3291.5C 3928.94,3121.05 3587.94,2951.39 3246.5,2782.5C 3254.93,2765.97 3263.59,2749.64 3272.5,2733.5 Z"/></g>
<g><path style="opacity:0.999" fill="#5837a2" d="M 3246.5,2782.5 C 3587.94,2951.39 3928.94,3121.05 4269.5,3291.5C 4268.01,3295.82 4266.01,3299.82 4263.5,3303.5C 3922.69,3133.59 3581.69,2963.93 3240.5,2794.5C 3242.5,2790.5 3244.5,2786.5 3246.5,2782.5 Z"/></g>
<g><path style="opacity:0.999" fill="#56369e" d="M 3240.5,2794.5 C 3581.69,2963.93 3922.69,3133.59 4263.5,3303.5C 4253.59,3323.65 4242.93,3343.32 4231.5,3362.5C 3890.83,3193.5 3550.17,3024.5 3209.5,2855.5C 3219.56,2835.04 3229.9,2814.7 3240.5,2794.5 Z"/></g>
<g><path style="opacity:0.999" fill="#533499" d="M 3209.5,2855.5 C 3550.17,3024.5 3890.83,3193.5 4231.5,3362.5C 4218.76,3387 4204.76,3410.67 4189.5,3433.5C 3850.17,3264.83 3510.83,3096.17 3171.5,2927.5C 3183.67,2903.15 3196.34,2879.15 3209.5,2855.5 Z"/></g>
<g><path style="opacity:0.999" fill="#513396" d="M 3171.5,2927.5 C 3510.83,3096.17 3850.17,3264.83 4189.5,3433.5C 4187.42,3437.34 4185.08,3441 4182.5,3444.5C 3843.37,3276.44 3504.37,3108.1 3165.5,2939.5C 3167.5,2935.5 3169.5,2931.5 3171.5,2927.5 Z"/></g>
<g><path style="opacity:0.999" fill="#503294" d="M 3165.5,2939.5 C 3504.37,3108.1 3843.37,3276.44 4182.5,3444.5C 4174.89,3456.11 4166.89,3467.44 4158.5,3478.5C 3820.92,3311.37 3483.58,3143.71 3146.5,2975.5C 3152.83,2963.5 3159.17,2951.5 3165.5,2939.5 Z"/></g>
<g><path style="opacity:0.999" fill="#f866ff" d="M 2355.5,2952.5 C 2401.91,3041.65 2448.08,3130.98 2494,3220.5C 2507.26,3244.69 2520.76,3268.69 2534.5,3292.5C 2347.74,3692.42 2161.74,4092.75 1976.5,4493.5C 1872.05,4480.37 1769.05,4460.04 1667.5,4432.5C 1896.32,3938.86 2125.66,3445.52 2355.5,2952.5 Z"/></g>
<g><path style="opacity:0.999" fill="#4e3190" d="M 3146.5,2975.5 C 3483.58,3143.71 3820.92,3311.37 4158.5,3478.5C 4153.31,3486.23 4147.64,3493.57 4141.5,3500.5C 3805.64,3333.74 3469.97,3166.74 3134.5,2999.5C 3138.49,2991.53 3142.49,2983.53 3146.5,2975.5 Z"/></g>
<g><path style="opacity:0.999" fill="#4c2f8c" d="M 3134.5,2999.5 C 3469.97,3166.74 3805.64,3333.74 4141.5,3500.5C 4139.85,3503.47 4137.85,3506.14 4135.5,3508.5C 4119.82,3522.85 4103.82,3536.85 4087.5,3550.5C 3759.36,3386.93 3431.03,3223.6 3102.5,3060.5C 3112.93,3039.97 3123.59,3019.64 3134.5,2999.5 Z"/></g>
<g><path style="opacity:1" fill="#492d86" d="M 3102.5,3060.5 C 3431.03,3223.6 3759.36,3386.93 4087.5,3550.5C 4067.14,3566.19 4046.47,3581.52 4025.5,3596.5C 4025.63,3595.62 4025.3,3594.96 4024.5,3594.5C 3706.93,3436.55 3389.27,3278.88 3071.5,3121.5C 3081.56,3101.04 3091.9,3080.7 3102.5,3060.5 Z"/></g>
<g><path style="opacity:1" fill="#462c81" d="M 3071.5,3121.5 C 3389.27,3278.88 3706.93,3436.55 4024.5,3594.5C 4025.3,3594.96 4025.63,3595.62 4025.5,3596.5C 4012.83,3605.5 4000.17,3614.5 3987.5,3623.5C 3987.63,3622.62 3987.3,3621.96 3986.5,3621.5C 3675.39,3466.28 3364.06,3311.61 3052.5,3157.5C 3058.34,3145.15 3064.67,3133.15 3071.5,3121.5 Z"/></g>
<g><path style="opacity:0.999" fill="#452b7f" d="M 3052.5,3157.5 C 3364.06,3311.61 3675.39,3466.28 3986.5,3621.5C 3987.3,3621.96 3987.63,3622.62 3987.5,3623.5C 3983.5,3626.17 3979.5,3628.83 3975.5,3631.5C 3666.02,3477.26 3356.36,3323.26 3046.5,3169.5C 3047.99,3165.18 3049.99,3161.18 3052.5,3157.5 Z"/></g>
<g><path style="opacity:1" fill="#442b7e" d="M 3046.5,3169.5 C 3356.36,3323.26 3666.02,3477.26 3975.5,3631.5C 3971.38,3634.73 3967.04,3637.73 3962.5,3640.5C 3655.48,3486.99 3348.15,3333.99 3040.5,3181.5C 3041.99,3177.18 3043.99,3173.18 3046.5,3169.5 Z"/></g>
<g><path style="opacity:0.999" fill="#412979" d="M 3040.5,3181.5 C 3348.15,3333.99 3655.48,3486.99 3962.5,3640.5C 3949.13,3649.51 3935.8,3658.51 3922.5,3667.5C 3913.36,3672.57 3904.36,3677.9 3895.5,3683.5C 3599.85,3535.67 3303.85,3388.34 3007.5,3241.5C 3018.54,3221.48 3029.54,3201.48 3040.5,3181.5 Z"/></g>
<g><path style="opacity:0.999" fill="#3f2775" d="M 3007.5,3241.5 C 3303.85,3388.34 3599.85,3535.67 3895.5,3683.5C 3886.17,3689.17 3876.83,3694.83 3867.5,3700.5C 3867.63,3699.62 3867.3,3698.96 3866.5,3698.5C 3575.81,3554.16 3285.14,3409.82 2994.5,3265.5C 2998.83,3257.5 3003.17,3249.5 3007.5,3241.5 Z"/></g>
<g><path style="opacity:0.999" fill="#3d2672" d="M 2994.5,3265.5 C 3285.14,3409.82 3575.81,3554.16 3866.5,3698.5C 3867.3,3698.96 3867.63,3699.62 3867.5,3700.5C 3858.17,3705.83 3848.83,3711.17 3839.5,3716.5C 3822.88,3707.19 3805.88,3698.35 3788.5,3690C 3519.48,3556.49 3250.48,3422.99 2981.5,3289.5C 2985.83,3281.5 2990.17,3273.5 2994.5,3265.5 Z"/></g>
<g><path style="opacity:0.999" fill="#3c266f" d="M 2981.5,3289.5 C 3250.48,3422.99 3519.48,3556.49 3788.5,3690C 3805.88,3698.35 3822.88,3707.19 3839.5,3716.5C 3829.75,3722.24 3819.75,3727.57 3809.5,3732.5C 3809.63,3731.62 3809.3,3730.96 3808.5,3730.5C 3528.48,3591.49 3248.48,3452.49 2968.5,3313.5C 2972.8,3305.52 2977.14,3297.52 2981.5,3289.5 Z"/></g>
<g><path style="opacity:0.999" fill="#f76dfe" d="M 2534.5,3292.5 C 2560.87,3336.85 2589.2,3379.85 2619.5,3421.5C 2636.38,3444.72 2654.05,3467.39 2672.5,3489.5C 2514.5,3829.5 2356.5,4169.5 2198.5,4509.5C 2124.24,4507.77 2050.24,4502.43 1976.5,4493.5C 2161.74,4092.75 2347.74,3692.42 2534.5,3292.5 Z"/></g>
<g><path style="opacity:0.999" fill="#3a256c" d="M 2968.5,3313.5 C 3248.48,3452.49 3528.48,3591.49 3808.5,3730.5C 3809.3,3730.96 3809.63,3731.62 3809.5,3732.5C 3800.02,3737.74 3790.36,3742.74 3780.5,3747.5C 3505.93,3610.08 3230.93,3473.41 2955.5,3337.5C 2959.33,3329.17 2963.66,3321.17 2968.5,3313.5 Z"/></g>
<g><path style="opacity:0.999" fill="#392369" d="M 2955.5,3337.5 C 3230.93,3473.41 3505.93,3610.08 3780.5,3747.5C 3779.29,3747.93 3778.29,3748.6 3777.5,3749.5C 3768.16,3753.84 3758.83,3758.17 3749.5,3762.5C 3480.94,3628.05 3211.94,3494.39 2942.5,3361.5C 2946.33,3353.17 2950.66,3345.17 2955.5,3337.5 Z"/></g>
<g><path style="opacity:0.999" fill="#372265" d="M 2942.5,3361.5 C 3211.94,3494.39 3480.94,3628.05 3749.5,3762.5C 3733.07,3770.05 3716.4,3777.05 3699.5,3783.5C 3440.02,3653.93 3180.36,3524.59 2920.5,3395.5C 2928.35,3384.47 2935.68,3373.14 2942.5,3361.5 Z"/></g>
<g><path style="opacity:0.999" fill="#342060" d="M 2920.5,3395.5 C 3180.36,3524.59 3440.02,3653.93 3699.5,3783.5C 3680.4,3791.38 3661.06,3798.72 3641.5,3805.5C 3637.03,3806.43 3632.7,3807.77 3628.5,3809.5C 3584.54,3786.52 3540.21,3764.02 3495.5,3742C 3290.47,3640.15 3085.47,3538.32 2880.5,3436.5C 2895.85,3424.82 2909.18,3411.15 2920.5,3395.5 Z"/></g>
<g><path style="opacity:0.999" fill="#2a1a4d" d="M 2619.5,3421.5 C 2643.51,3442.84 2670.84,3458.51 2701.5,3468.5C 2952.65,3593.58 3203.65,3718.91 3454.5,3844.5C 3425.39,3847.21 3396.39,3847.88 3367.5,3846.5C 3142.47,3733.99 2917.14,3621.99 2691.5,3510.5C 2684.8,3503.8 2678.46,3496.8 2672.5,3489.5C 2654.05,3467.39 2636.38,3444.72 2619.5,3421.5 Z"/></g>
<g><path style="opacity:0.999" fill="#321f5c" d="M 2880.5,3436.5 C 3085.47,3538.32 3290.47,3640.15 3495.5,3742C 3540.21,3764.02 3584.54,3786.52 3628.5,3809.5C 3622.24,3811.47 3615.9,3813.13 3609.5,3814.5C 3362.48,3690.99 3115.15,3567.99 2867.5,3445.5C 2871.53,3442.14 2875.87,3439.14 2880.5,3436.5 Z"/></g>
<g><path style="opacity:0.999" fill="#301e5a" d="M 2867.5,3445.5 C 3115.15,3567.99 3362.48,3690.99 3609.5,3814.5C 3596.79,3818.78 3583.79,3822.45 3570.5,3825.5C 3326.5,3703.83 3082.5,3582.17 2838.5,3460.5C 2848.35,3455.74 2858.02,3450.74 2867.5,3445.5 Z"/></g>
<g><path style="opacity:0.999" fill="#2d1d54" d="M 2838.5,3460.5 C 3082.5,3582.17 3326.5,3703.83 3570.5,3825.5C 3541.57,3831.89 3512.57,3837.22 3483.5,3841.5C 3482.5,3841.5 3481.5,3841.5 3480.5,3841.5C 3236.08,3720.03 2991.75,3598.36 2747.5,3476.5C 2779.03,3477.74 2809.37,3472.41 2838.5,3460.5 Z"/></g>
<g><path style="opacity:0.998" fill="#2c1b51" d="M 2701.5,3468.5 C 2716.64,3472.33 2731.97,3474.99 2747.5,3476.5C 2991.75,3598.36 3236.08,3720.03 3480.5,3841.5C 3471.9,3842.89 3463.23,3843.89 3454.5,3844.5C 3203.65,3718.91 2952.65,3593.58 2701.5,3468.5 Z"/></g>
<g><path style="opacity:1" fill="#f773fe" d="M 2672.5,3489.5 C 2678.46,3496.8 2684.8,3503.8 2691.5,3510.5C 2699.45,3520.79 2708.12,3530.46 2717.5,3539.5C 2736.5,3560.5 2756.5,3580.5 2777.5,3599.5C 2790.94,3611.73 2804.61,3623.73 2818.5,3635.5C 2684.44,3925.29 2550.11,4214.95 2415.5,4504.5C 2378.21,4507.39 2340.88,4509.39 2303.5,4510.5C 2272.17,4510.5 2240.83,4510.5 2209.5,4510.5C 2206.04,4509.52 2202.37,4509.19 2198.5,4509.5C 2356.5,4169.5 2514.5,3829.5 2672.5,3489.5 Z"/></g>
<g><path style="opacity:1" fill="#28194a" d="M 2691.5,3510.5 C 2917.14,3621.99 3142.47,3733.99 3367.5,3846.5C 3364.17,3846.5 3360.83,3846.5 3357.5,3846.5C 3350.15,3846.45 3342.82,3846.12 3335.5,3845.5C 3130.05,3742.94 2924.38,3640.61 2718.5,3538.5C 2717.89,3538.62 2717.56,3538.96 2717.5,3539.5C 2708.12,3530.46 2699.45,3520.79 2691.5,3510.5 Z"/></g>
<g><path style="opacity:1" fill="#261847" d="M 3335.5,3845.5 C 3309.2,3844.37 3283.2,3841.7 3257.5,3837.5C 3098.05,3757.61 2938.38,3677.94 2778.5,3598.5C 2777.89,3598.62 2777.56,3598.96 2777.5,3599.5C 2756.5,3580.5 2736.5,3560.5 2717.5,3539.5C 2717.56,3538.96 2717.89,3538.62 2718.5,3538.5C 2924.38,3640.61 3130.05,3742.94 3335.5,3845.5 Z"/></g>
<g><path style="opacity:0.988" fill="#f7aafe" d="M 4135.5,3508.5 C 4122.93,3525.25 4109.76,3541.58 4096,3557.5C 4024.24,3658.97 3944.57,3754.31 3857,3843.5C 3848.27,3852.74 3839.1,3861.4 3829.5,3869.5C 3860.5,3802.17 3891.5,3734.83 3922.5,3667.5C 3935.8,3658.51 3949.13,3649.51 3962.5,3640.5C 3967.04,3637.73 3971.38,3634.73 3975.5,3631.5C 3979.5,3628.83 3983.5,3626.17 3987.5,3623.5C 4000.17,3614.5 4012.83,3605.5 4025.5,3596.5C 4046.47,3581.52 4067.14,3566.19 4087.5,3550.5C 4103.82,3536.85 4119.82,3522.85 4135.5,3508.5 Z"/></g>
<g><path style="opacity:1" fill="#251743" d="M 3257.5,3837.5 C 3248.8,3836.38 3240.13,3835.05 3231.5,3833.5C 3185.18,3825.25 3139.85,3813.25 3095.5,3797.5C 3043.38,3777.91 2993.38,3753.91 2945.5,3725.5C 2900.88,3698.69 2858.55,3668.69 2818.5,3635.5C 2804.61,3623.73 2790.94,3611.73 2777.5,3599.5C 2777.56,3598.96 2777.89,3598.62 2778.5,3598.5C 2938.38,3677.94 3098.05,3757.61 3257.5,3837.5 Z"/></g>
<g><path style="opacity:0.999" fill="#f779fe" d="M 2818.5,3635.5 C 2858.55,3668.69 2900.88,3698.69 2945.5,3725.5C 2827.83,3978.84 2710.16,4232.17 2592.5,4485.5C 2533.81,4494.54 2474.81,4500.87 2415.5,4504.5C 2550.11,4214.95 2684.44,3925.29 2818.5,3635.5 Z"/></g>
<g><path style="opacity:0.995" fill="#f7a5fe" d="M 3922.5,3667.5 C 3891.5,3734.83 3860.5,3802.17 3829.5,3869.5C 3772.12,3926.9 3711.45,3980.23 3647.5,4029.5C 3690.84,3936.16 3734.17,3842.83 3777.5,3749.5C 3778.29,3748.6 3779.29,3747.93 3780.5,3747.5C 3790.36,3742.74 3800.02,3737.74 3809.5,3732.5C 3819.75,3727.57 3829.75,3722.24 3839.5,3716.5C 3848.83,3711.17 3858.17,3705.83 3867.5,3700.5C 3876.83,3694.83 3886.17,3689.17 3895.5,3683.5C 3904.36,3677.9 3913.36,3672.57 3922.5,3667.5 Z"/></g>
<g><path style="opacity:0.999" fill="#f77ffe" d="M 2945.5,3725.5 C 2993.38,3753.91 3043.38,3777.91 3095.5,3797.5C 2995.51,4013.49 2895.51,4229.49 2795.5,4445.5C 2728.52,4462.16 2660.86,4475.5 2592.5,4485.5C 2710.16,4232.17 2827.83,3978.84 2945.5,3725.5 Z"/></g>
<g><path style="opacity:0.997" fill="#f79ffe" d="M 3777.5,3749.5 C 3734.17,3842.83 3690.84,3936.16 3647.5,4029.5C 3595.79,4070.54 3542.12,4108.88 3486.5,4144.5C 3538.82,4031.86 3591.15,3919.19 3643.5,3806.5C 3643.04,3805.7 3642.38,3805.37 3641.5,3805.5C 3661.06,3798.72 3680.4,3791.38 3699.5,3783.5C 3716.4,3777.05 3733.07,3770.05 3749.5,3762.5C 3758.83,3758.17 3768.16,3753.84 3777.5,3749.5 Z"/></g>
<g><path style="opacity:0.999" fill="#f786fe" d="M 3095.5,3797.5 C 3139.85,3813.25 3185.18,3825.25 3231.5,3833.5C 3231.61,3834.12 3231.94,3834.62 3232.5,3835C 3145.15,4021.21 3058.48,4207.71 2972.5,4394.5C 2914.26,4414.13 2855.26,4431.13 2795.5,4445.5C 2895.51,4229.49 2995.51,4013.49 3095.5,3797.5 Z"/></g>
<g><path style="opacity:0.998" fill="#f798fe" d="M 3641.5,3805.5 C 3642.38,3805.37 3643.04,3805.7 3643.5,3806.5C 3591.15,3919.19 3538.82,4031.86 3486.5,4144.5C 3425.85,4185.08 3362.85,4222.08 3297.5,4255.5C 3361.21,4117.55 3425.21,3979.71 3489.5,3842C 3487.53,3841.5 3485.53,3841.34 3483.5,3841.5C 3512.57,3837.22 3541.57,3831.89 3570.5,3825.5C 3583.79,3822.45 3596.79,3818.78 3609.5,3814.5C 3615.9,3813.13 3622.24,3811.47 3628.5,3809.5C 3632.7,3807.77 3637.03,3806.43 3641.5,3805.5 Z"/></g>
<g><path style="opacity:0.999" fill="#f78cfe" d="M 3231.5,3833.5 C 3240.13,3835.05 3248.8,3836.38 3257.5,3837.5C 3283.2,3841.7 3309.2,3844.37 3335.5,3845.5C 3342.82,3846.12 3350.15,3846.45 3357.5,3846.5C 3359.37,3847.16 3361.37,3847.83 3363.5,3848.5C 3288.82,4009.19 3214.15,4169.86 3139.5,4330.5C 3084.84,4354.17 3029.18,4375.5 2972.5,4394.5C 3058.48,4207.71 3145.15,4021.21 3232.5,3835C 3231.94,3834.62 3231.61,3834.12 3231.5,3833.5 Z"/></g>
<g><path style="opacity:0.998" fill="#f792fe" d="M 3480.5,3841.5 C 3481.5,3841.5 3482.5,3841.5 3483.5,3841.5C 3485.53,3841.34 3487.53,3841.5 3489.5,3842C 3425.21,3979.71 3361.21,4117.55 3297.5,4255.5C 3246.15,4283.18 3193.48,4308.18 3139.5,4330.5C 3214.15,4169.86 3288.82,4009.19 3363.5,3848.5C 3361.37,3847.83 3359.37,3847.16 3357.5,3846.5C 3360.83,3846.5 3364.17,3846.5 3367.5,3846.5C 3396.39,3847.88 3425.39,3847.21 3454.5,3844.5C 3463.23,3843.89 3471.9,3842.89 3480.5,3841.5 Z"/></g>
</svg>
