<?xml version="1.0" encoding="UTF-8"?>
<!DOCTYPE svg PUBLIC "-//W3C//DTD SVG 1.1//EN" "http://www.w3.org/Graphics/SVG/1.1/DTD/svg11.dtd">
<svg xmlns="http://www.w3.org/2000/svg" version="1.1" width="360px" height="360px" style="shape-rendering:geometricPrecision; text-rendering:geometricPrecision; image-rendering:optimizeQuality; fill-rule:evenodd; clip-rule:evenodd" xmlns:xlink="http://www.w3.org/1999/xlink">
<g><path style="opacity:1" fill="#020202" d="M -0.5,-0.5 C 119.5,-0.5 239.5,-0.5 359.5,-0.5C 359.5,119.5 359.5,239.5 359.5,359.5C 239.5,359.5 119.5,359.5 -0.5,359.5C -0.5,239.5 -0.5,119.5 -0.5,-0.5 Z"/></g>
<g><path style="opacity:1" fill="#f9f9f9" d="M 21.5,21.5 C 126.833,21.5 232.167,21.5 337.5,21.5C 337.5,126.833 337.5,232.167 337.5,337.5C 232.167,337.5 126.833,337.5 21.5,337.5C 21.5,232.167 21.5,126.833 21.5,21.5 Z"/></g>
<g><path style="opacity:1" fill="#000000" d="M 30.5,30.5 C 129.833,30.5 229.167,30.5 328.5,30.5C 328.5,129.833 328.5,229.167 328.5,328.5C 229.167,328.5 129.833,328.5 30.5,328.5C 30.5,229.167 30.5,129.833 30.5,30.5 Z"/></g>
<g><path style="opacity:1" fill="#a2a2a2" d="M 76.5,57.5 C 70.5,57.5 64.5,57.5 58.5,57.5C 58.5,60.1667 58.5,62.8333 58.5,65.5C 57.5233,62.7131 57.19,59.7131 57.5,56.5C 64.0221,56.1765 70.3554,56.5098 76.5,57.5 Z"/></g>
<g><path style="opacity:1" fill="#f4f4f4" d="M 76.5,57.5 C 99.6904,57.6181 120.357,64.7848 138.5,79C 156.605,98.2567 162.105,120.757 155,146.5C 148.953,163.552 138.12,176.719 122.5,186C 109.988,193.06 96.8218,198.56 83,202.5C 82.5,239.165 82.3333,275.832 82.5,312.5C 74.5,312.5 66.5,312.5 58.5,312.5C 58.5,309.5 58.5,306.5 58.5,303.5C 63.5,303.5 68.5,303.5 73.5,303.5C 73.5,267.167 73.5,230.833 73.5,194.5C 97.264,191.034 117.764,181.034 135,164.5C 147.181,149.627 151.514,132.627 148,113.5C 144.279,97.2229 135.113,85.0563 120.5,77C 100.807,68.1196 80.1401,64.2862 58.5,65.5C 58.5,62.8333 58.5,60.1667 58.5,57.5C 64.5,57.5 70.5,57.5 76.5,57.5 Z"/></g>
<g><path style="opacity:1" fill="#f9f9f9" d="M 281.5,162.5 C 281.783,163.289 282.283,163.956 283,164.5C 283.5,128.835 283.667,93.1682 283.5,57.5C 286.167,57.5 288.833,57.5 291.5,57.5C 291.832,102.67 291.499,147.67 290.5,192.5C 261.302,147.276 231.968,102.11 202.5,57C 207.236,55.7823 211.403,56.6156 215,59.5C 237.177,93.8617 259.344,128.195 281.5,162.5 Z"/></g>
<g><path style="opacity:1" fill="#242424" d="M 283.5,56.5 C 283.5,56.8333 283.5,57.1667 283.5,57.5C 283.667,93.1682 283.5,128.835 283,164.5C 282.283,163.956 281.783,163.289 281.5,162.5C 282.167,127.167 282.833,91.8333 283.5,56.5 Z"/></g>
<g><path style="opacity:1" fill="#a8a8a8" d="M 283.5,57.5 C 283.5,57.1667 283.5,56.8333 283.5,56.5C 286.5,56.5 289.5,56.5 292.5,56.5C 292.667,102.501 292.5,148.501 292,194.5C 291.283,193.956 290.783,193.289 290.5,192.5C 291.499,147.67 291.832,102.67 291.5,57.5C 288.833,57.5 286.167,57.5 283.5,57.5 Z"/></g>
<g><path style="opacity:1" fill="#f9f9f9" d="M 212.5,205.5 C 212.44,204.957 212.107,204.624 211.5,204.5C 210.5,240.16 210.167,275.827 210.5,311.5C 207.833,311.5 205.167,311.5 202.5,311.5C 202.333,265.832 202.5,220.165 203,174.5C 232.375,220.085 261.875,265.585 291.5,311C 287.577,311.793 283.744,311.626 280,310.5C 257.489,275.472 234.989,240.472 212.5,205.5 Z"/></g>
<g><path style="opacity:1" fill="#888888" d="M 212.5,205.5 C 211.502,240.996 211.168,276.663 211.5,312.5C 208.287,312.81 205.287,312.477 202.5,311.5C 205.167,311.5 207.833,311.5 210.5,311.5C 210.167,275.827 210.5,240.16 211.5,204.5C 212.107,204.624 212.44,204.957 212.5,205.5 Z"/></g>
</svg>
